<mxfile host="app.diagrams.net" modified="2023-05-26T04:48:42.635Z" agent="Mozilla/5.0 (Windows NT 10.0; Win64; x64) AppleWebKit/537.36 (KHTML, like Gecko) Chrome/112.0.0.0 Whale/3.20.182.14 Safari/537.36" version="21.3.4" etag="jW-xxvVz7pTy8uzAOfY6" type="github">
  <diagram name="페이지-1" id="PQJVYO83aRbSZr_arh7O">
    <mxGraphModel>
      <root>
        <mxCell id="0" />
        <mxCell id="1" parent="0" />
      </root>
    </mxGraphModel>
  </diagram>
</mxfile>
